<?xml version="1.0" standalone="no"?>
<!DOCTYPE svg PUBLIC "-//W3C//DTD SVG 20010904//EN"
 "http://www.w3.org/TR/2001/REC-SVG-20010904/DTD/svg10.dtd">
<svg version="1.0" xmlns="http://www.w3.org/2000/svg"
 width="2500.000000pt" height="2500.000000pt" viewBox="0 0 2500.000000 2500.000000"
 preserveAspectRatio="xMidYMid meet">
<metadata>
Created by potrace 1.14, written by Peter Selinger 2001-2017
</metadata>
<g transform="translate(0.000000,2500.000000) scale(0.100000,-0.100000)"
fill="#000000" stroke="none">
<path d="M0 12500 l0 -12500 12500 0 12500 0 0 12500 0 12500 -12500 0 -12500
0 0 -12500z m21896 2454 c157 -94 354 -282 476 -454 114 -161 232 -406 294
-615 55 -183 69 -285 69 -515 -1 -197 -3 -224 -27 -325 -40 -166 -34 -157
-135 -198 -48 -19 -89 -34 -91 -33 -1 2 4 32 12 67 72 315 48 698 -64 1024
-135 391 -390 736 -714 963 l-78 55 78 33 c44 18 88 33 100 33 11 1 47 -15 80
-35z m-363 -598 c69 -46 105 -193 61 -253 -49 -66 -154 -89 -211 -47 -66 49
-102 177 -69 242 35 69 154 100 219 58z m-18106 -707 c146 -20 221 -73 263
-186 17 -47 20 -78 20 -237 0 -203 -9 -255 -59 -323 -61 -84 -145 -112 -373
-120 l-158 -6 0 -150 c0 -126 -3 -153 -17 -169 -14 -16 -34 -18 -174 -18 -130
0 -160 3 -173 16 -14 14 -16 81 -16 592 0 317 4 582 8 588 4 6 14 14 22 17 27
10 577 7 657 -4z m951 -5 l22 -15 0 -435 0 -434 118 0 117 0 0 149 c0 109 4
153 14 165 11 13 38 16 172 16 146 0 159 -1 169 -19 6 -12 10 -129 10 -310 0
-288 0 -290 -22 -305 -20 -14 -82 -16 -475 -16 -397 0 -453 2 -467 16 -14 14
-16 81 -16 592 0 317 4 582 8 588 13 20 35 22 182 23 117 1 150 -2 168 -15z
m1727 -5 c19 -19 187 -451 216 -554 17 -61 19 -103 19 -347 0 -264 -1 -278
-19 -288 -11 -5 -86 -10 -170 -10 -198 0 -191 -7 -191 170 l0 130 -150 0 -150
0 0 -134 c0 -109 -3 -138 -16 -150 -13 -13 -42 -16 -165 -16 -209 0 -192 -29
-187 318 4 254 6 283 27 346 37 111 191 509 204 524 23 28 56 31 309 29 221
-2 260 -4 273 -18z m885 1 c18 -18 20 -33 20 -198 l0 -177 55 -83 c48 -72 59
-82 85 -82 31 0 51 21 110 118 l33 54 2 180 c2 162 4 183 21 195 26 19 303 18
330 -1 18 -14 19 -28 19 -238 -1 -204 -2 -227 -21 -268 -12 -25 -85 -132 -163
-237 l-141 -193 0 -124 c0 -114 -2 -126 -19 -136 -11 -5 -86 -10 -173 -10
-206 0 -198 -7 -198 155 l0 125 -140 187 c-77 103 -148 203 -157 222 -15 31
-18 70 -21 267 -3 203 -1 234 13 248 14 13 42 16 171 16 141 0 156 -2 174 -20z
m1717 -9 c61 -27 115 -82 134 -137 10 -27 14 -89 14 -199 0 -147 -2 -164 -23
-207 -43 -86 -114 -128 -342 -200 -85 -27 -158 -54 -162 -61 -4 -7 -8 -24 -8
-39 l0 -28 251 0 c153 0 258 -4 270 -10 17 -10 19 -23 19 -150 0 -127 -2 -140
-19 -150 -13 -6 -171 -10 -445 -10 -383 0 -426 2 -441 17 -15 14 -16 41 -13
242 5 247 11 282 72 357 37 46 83 68 281 133 156 51 171 58 180 84 6 19 6 34
-1 45 -10 15 -38 18 -228 22 -203 5 -219 6 -232 25 -12 16 -15 46 -12 143 3
110 5 125 23 138 17 13 68 15 325 12 296 -3 307 -4 357 -27z m895 -387 l3
-346 50 69 c254 348 298 404 310 391 7 -7 88 -114 179 -238 l166 -224 0 347 0
347 130 0 130 0 0 -570 0 -570 -125 0 -126 0 -181 244 -182 245 -181 -244
-180 -244 -127 -1 -128 0 0 440 0 440 -60 0 -60 0 0 130 0 130 190 0 190 0 2
-346z m2400 269 l78 -78 0 -411 0 -411 -81 -82 -81 -81 -431 0 -432 0 -82 82
-83 83 0 405 0 405 82 82 83 83 435 0 435 0 77 -77z m1395 -5 l83 -83 0 -265
0 -265 -80 -80 c-44 -44 -80 -83 -80 -87 0 -4 54 -68 120 -143 l121 -135 -168
1 -168 0 -120 139 -120 138 -137 1 -138 1 0 -140 0 -140 -130 0 -130 0 0 400
0 400 130 0 130 0 0 -130 0 -130 255 0 255 0 0 170 0 170 -445 0 -445 0 0 130
0 130 492 0 493 0 82 -82z m723 -358 l0 -440 370 0 370 0 0 -130 0 -130 -500
0 -500 0 0 440 0 440 -60 0 -60 0 0 130 0 130 190 0 190 0 0 -440z m1977 358
l83 -83 0 -405 0 -405 -82 -82 -83 -83 -432 0 -433 0 0 400 0 400 130 0 130 0
0 -270 0 -270 255 0 255 0 0 310 0 310 -445 0 -445 0 0 130 0 130 492 0 493 0
82 -82z m2045 5 l78 -78 0 -132 0 -133 -130 0 -130 0 0 80 0 80 -315 0 -315 0
0 -310 0 -310 425 0 425 0 0 -130 0 -130 -472 0 -473 0 -82 82 -83 83 0 405 0
405 82 82 83 83 415 0 415 0 77 -77z m1510 0 l78 -78 0 -411 0 -411 -81 -82
-81 -81 -431 0 -432 0 -82 82 -83 83 0 405 0 405 82 82 83 83 435 0 435 0 77
-77z m765 -5 c33 -46 114 -156 180 -245 l119 -162 120 162 c65 89 146 199 179
244 l60 82 128 1 127 0 0 -570 0 -570 -130 0 -130 0 0 347 0 347 -171 -229
c-94 -127 -174 -233 -178 -238 -4 -4 -86 99 -182 228 l-174 237 -3 -346 -2
-346 -130 0 -130 0 0 440 0 440 -60 0 -60 0 0 130 0 130 188 0 188 0 61 -82z
m1511 -192 c94 -49 135 -204 71 -272 -56 -61 -154 -74 -207 -29 -60 50 -93
160 -67 221 31 74 135 115 203 80z m-5168 -721 l0 -145 -130 0 -130 0 0 145 0
145 130 0 130 0 0 -145z"/>
<path d="M3120 13212 l0 -129 97 3 c125 2 133 10 133 128 0 120 -6 126 -131
126 l-99 0 0 -128z"/>
<path d="M5766 13321 c-7 -11 -86 -262 -86 -273 0 -5 59 -8 130 -8 103 0 130
3 130 14 0 21 -71 250 -82 264 -12 14 -84 17 -92 3z"/>
<path d="M11150 13020 l0 -310 335 0 335 0 0 310 0 310 -335 0 -335 0 0 -310z"/>
<path d="M18800 13020 l0 -310 335 0 335 0 0 310 0 310 -335 0 -335 0 0 -310z"/>
</g>
</svg>
